<svg xmlns="http://www.w3.org/2000/svg" xmlns:xlink="http://www.w3.org/1999/xlink" width="13" height="19" version="1.1" viewBox="0 0 13 19"><title>icon-file-2</title><desc>Created with Sketch.</desc><g id="Page-1" fill="none" fill-rule="evenodd" stroke="none" stroke-width="1"><g id="Artboard-Copy-4" transform="translate(-199.000000, -192.000000)"><g id="icon-file-2" transform="translate(199.000000, 192.000000)"><path id="Outer" fill="#FFF" d="M1,0 L8.17157288,0 C8.70200585,-9.74389576e-17 9.21071368,0.210713681 9.58578644,0.585786438 L12.4142136,3.41421356 C12.7892863,3.78928632 13,4.29799415 13,4.82842712 L13,18 C13,18.5522847 12.5522847,19 12,19 L1,19 C0.44771525,19 6.76353751e-17,18.5522847 0,18 L0,1 C-6.76353751e-17,0.44771525 0.44771525,1.01453063e-16 1,0 Z"/><rect id="Inner" width="7" height="1" x="3" y="8" fill="#0091FF" fill-opacity=".3"/><rect id="Inner2" width="7" height="1" x="3" y="10" fill="#0091FF" fill-opacity=".3"/><rect id="Inner3" width="7" height="1" x="3" y="12" fill="#0091FF" fill-opacity=".3"/></g></g></g></svg>